ffmpeg started on 2025-05-06 at 10:17:32
Report written to "D:\Convert\FFMetrics\reports\ssim_report-6.txt"
Log level: 32
Command line:
ffmpeg -hide_banner -nostdin -i "G:\\\xc0\xed\xe8\xec\xe5\\\xce\xed\xe3\xee\xe8\xed\xe3\xe8\\!_35_\xcb\xe5\xf2\xee_2024\\JamClub\\\xc1\xe0\xf1\xed\xff\\[JAM_CLUB]_The_Fable_25_[1080p][RUS][DUB]_HEVC.mkv" -i "G:\\\xc0\xed\xe8\xec\xe5\\\xce\xed\xe3\xee\xe8\xed\xe3\xe8\\!_35_\xcb\xe5\xf2\xee_2024\\JamClub\\\xc1\xe0\xf1\xed\xff\\[JAM_CLUB]_The_Fable_25_[1080p][RUS][DUB].mp4" -lavfi "[0:v]settb=AVTB,setpts=PTS-STARTPTS,format=pix_fmts=yuv420p10,fps=24000/1001,scale=1920:1080:flags=bicubic[main];[1:v]settb=AVTB,setpts=PTS-STARTPTS,format=pix_fmts=yuv420p,fps=24000/1001,scale=1920:1080:flags=bicubic[ref];[main][ref]ssim=eof_action=endall:stats_file='D\\:/Convert/FFMetrics/logs/ssim_logfile-6.txt'" -f null -
Input #0, matroska,webm, from 'G:\Аниме\Онгоинги\!_35_Лето_2024\JamClub\Басня\[JAM_CLUB]_The_Fable_25_[1080p][RUS][DUB]_HEVC.mkv':
  Metadata:
    COMPATIBLE_BRANDS: isomiso2avc1mp41
    MAJOR_BRAND     : isom
    MINOR_VERSION   : 512
    ENCODER         : Lavf61.7.100
  Duration: 00:23:14.33, start: -0.001000, bitrate: 932 kb/s
  Stream #0:0: Video: hevc (Main 10), yuv420p10le(tv, bt709, progressive), 1920x1080 [SAR 1:1 DAR 16:9], 23.98 fps, 23.98 tbr, 1k tbn (default)
      Metadata:
        HANDLER_NAME    : VideoHandler
        VENDOR_ID       : [0][0][0][0]
        ENCODER         : Lavc61.19.100 libx265
        BPS             : 733522
        DURATION        : 00:23:14.184708333
        NUMBER_OF_FRAMES: 33427
        NUMBER_OF_BYTES : 127833223
        _STATISTICS_WRITING_APP: mkvpropedit v66.0.0 ('Josie') 64-bit
        _STATISTICS_WRITING_DATE_UTC: 2025-05-05 16:27:37
        _STATISTICS_TAGS: BPS DURATION NUMBER_OF_FRAMES NUMBER_OF_BYTES
  Stream #0:1(eng): Audio: aac (LC), 48000 Hz, stereo, fltp (default)
      Metadata:
        HANDLER_NAME    : SoundHandler
        VENDOR_ID       : [0][0][0][0]
        ENCODER         : Lavc61.19.100 aac
        BPS             : 195475
        DURATION        : 00:23:14.285000000
        NUMBER_OF_FRAMES: 65358
        NUMBER_OF_BYTES : 34068557
        _STATISTICS_WRITING_APP: mkvpropedit v66.0.0 ('Josie') 64-bit
        _STATISTICS_WRITING_DATE_UTC: 2025-05-05 16:27:37
        _STATISTICS_TAGS: BPS DURATION NUMBER_OF_FRAMES NUMBER_OF_BYTES
Input #1, mov,mp4,m4a,3gp,3g2,mj2, from 'G:\Аниме\Онгоинги\!_35_Лето_2024\JamClub\Басня\[JAM_CLUB]_The_Fable_25_[1080p][RUS][DUB].mp4':
  Metadata:
    major_brand     : isom
    minor_version   : 512
    compatible_brands: isomiso2avc1mp41
    encoder         : Lavf60.16.100
  Duration: 00:23:14.31, start: 0.000000, bitrate: 3270 kb/s
  Stream #1:0[0x1](und): Video: h264 (High) (avc1 / 0x31637661), yuv420p(progressive), 1920x1080, 3072 kb/s, 23.98 fps, 23.98 tbr, 90k tbn (default)
      Metadata:
        handler_name    : VideoHandler
        vendor_id       : [0][0][0][0]
  Stream #1:1[0x2](eng): Audio: aac (LC) (mp4a / 0x6134706D), 48000 Hz, stereo, fltp, 191 kb/s (default)
      Metadata:
        handler_name    : SoundHandler
        vendor_id       : [0][0][0][0]
Stream mapping:
  Stream #0:0 (hevc) -> settb:default
  Stream #1:0 (h264) -> settb:default
  ssim:default -> Stream #0:0 (wrapped_avframe)
  Stream #0:1 -> #0:1 (aac (native) -> pcm_s16le (native))
Output #0, null, to 'pipe:':
  Metadata:
    COMPATIBLE_BRANDS: isomiso2avc1mp41
    MAJOR_BRAND     : isom
    MINOR_VERSION   : 512
    encoder         : Lavf61.7.100
  Stream #0:0: Video: wrapped_avframe, yuv420p10le(tv, bt709, progressive), 1920x1080 [SAR 1:1 DAR 16:9], q=2-31, 200 kb/s, 23.98 fps, 23.98 tbn
      Metadata:
        encoder         : Lavc61.19.100 wrapped_avframe
  Stream #0:1(eng): Audio: pcm_s16le, 48000 Hz, stereo, s16, 1536 kb/s (default)
      Metadata:
        HANDLER_NAME    : SoundHandler
        VENDOR_ID       : [0][0][0][0]
        _STATISTICS_TAGS: BPS DURATION NUMBER_OF_FRAMES NUMBER_OF_BYTES
        BPS             : 195475
        DURATION        : 00:23:14.285000000
        NUMBER_OF_FRAMES: 65358
        NUMBER_OF_BYTES : 34068557
        _STATISTICS_WRITING_APP: mkvpropedit v66.0.0 ('Josie') 64-bit
        _STATISTICS_WRITING_DATE_UTC: 2025-05-05 16:27:37
        encoder         : Lavc61.19.100 pcm_s16le
frame=  111 fps=0.0 q=-0.0 size=N/A time=00:00:04.62 bitrate=N/A speed= 9.2x    frame=  270 fps=262 q=-0.0 size=N/A time=00:00:11.26 bitrate=N/A speed=10.9x    frame=  459 fps=297 q=-0.0 size=N/A time=00:00:19.14 bitrate=N/A speed=12.4x    frame=  683 fps=333 q=-0.0 size=N/A time=00:00:28.48 bitrate=N/A speed=13.9x    frame=  895 fps=349 q=-0.0 size=N/A time=00:00:37.32 bitrate=N/A speed=14.5x    frame= 1058 fps=343 q=-0.0 size=N/A time=00:00:44.12 bitrate=N/A speed=14.3x    frame= 1197 fps=332 q=-0.0 size=N/A time=00:00:49.92 bitrate=N/A speed=13.8x    frame= 1353 fps=329 q=-0.0 size=N/A time=00:00:56.43 bitrate=N/A speed=13.7x    frame= 1524 fps=328 q=-0.0 size=N/A time=00:01:03.56 bitrate=N/A speed=13.7x    frame= 1681 fps=325 q=-0.0 size=N/A time=00:01:10.11 bitrate=N/A speed=13.6x    frame= 1823 fps=321 q=-0.0 size=N/A time=00:01:16.03 bitrate=N/A speed=13.4x    frame= 1969 fps=318 q=-0.0 size=N/A time=00:01:22.12 bitrate=N/A speed=13.2x    frame= 2116 fps=315 q=-0.0 size=N/A time=00:01:28.25 bitrate=N/A speed=13.1x    frame= 2243 fps=311 q=-0.0 size=N/A time=00:01:33.55 bitrate=N/A speed=  13x    frame= 2399 fps=310 q=-0.0 size=N/A time=00:01:40.05 bitrate=N/A speed=12.9x    frame= 2560 fps=310 q=-0.0 size=N/A time=00:01:46.77 bitrate=N/A speed=12.9x    frame= 2745 fps=313 q=-0.0 size=N/A time=00:01:54.48 bitrate=N/A speed=13.1x    frame= 2969 fps=319 q=-0.0 size=N/A time=00:02:03.83 bitrate=N/A speed=13.3x    frame= 3214 fps=328 q=-0.0 size=N/A time=00:02:14.05 bitrate=N/A speed=13.7x    frame= 3472 fps=336 q=-0.0 size=N/A time=00:02:24.81 bitrate=N/A speed=  14x    frame= 3745 fps=345 q=-0.0 size=N/A time=00:02:36.19 bitrate=N/A speed=14.4x    frame= 4012 fps=353 q=-0.0 size=N/A time=00:02:47.33 bitrate=N/A speed=14.7x    frame= 4285 fps=361 q=-0.0 size=N/A time=00:02:58.72 bitrate=N/A speed=  15x    frame= 4532 fps=366 q=-0.0 size=N/A time=00:03:09.02 bitrate=N/A speed=15.3x    frame= 4788 fps=371 q=-0.0 size=N/A time=00:03:19.69 bitrate=N/A speed=15.5x    frame= 5070 fps=377 q=-0.0 size=N/A time=00:03:31.46 bitrate=N/A speed=15.7x    frame= 5354 fps=384 q=-0.0 size=N/A time=00:03:43.30 bitrate=N/A speed=  16x    frame= 5628 fps=389 q=-0.0 size=N/A time=00:03:54.73 bitrate=N/A speed=16.2x    frame= 5899 fps=394 q=-0.0 size=N/A time=00:04:06.03 bitrate=N/A speed=16.4x    frame= 6174 fps=398 q=-0.0 size=N/A time=00:04:17.50 bitrate=N/A speed=16.6x    frame= 6445 fps=402 q=-0.0 size=N/A time=00:04:28.81 bitrate=N/A speed=16.8x    frame= 6716 fps=406 q=-0.0 size=N/A time=00:04:40.11 bitrate=N/A speed=16.9x    frame= 6992 fps=410 q=-0.0 size=N/A time=00:04:51.62 bitrate=N/A speed=17.1x    frame= 7272 fps=414 q=-0.0 size=N/A time=00:05:03.30 bitrate=N/A speed=17.3x    frame= 7542 fps=417 q=-0.0 size=N/A time=00:05:14.56 bitrate=N/A speed=17.4x    frame= 7807 fps=420 q=-0.0 size=N/A time=00:05:25.61 bitrate=N/A speed=17.5x    frame= 8077 fps=423 q=-0.0 size=N/A time=00:05:36.87 bitrate=N/A speed=17.6x    frame= 8337 fps=425 q=-0.0 size=N/A time=00:05:47.72 bitrate=N/A speed=17.7x    frame= 8616 fps=428 q=-0.0 size=N/A time=00:05:59.35 bitrate=N/A speed=17.8x    frame= 8893 fps=430 q=-0.0 size=N/A time=00:06:10.91 bitrate=N/A speed=17.9x    frame= 9143 fps=432 q=-0.0 size=N/A time=00:06:21.33 bitrate=N/A speed=  18x    frame= 9373 fps=432 q=-0.0 size=N/A time=00:06:30.93 bitrate=N/A speed=  18x    frame= 9632 fps=434 q=-0.0 size=N/A time=00:06:41.73 bitrate=N/A speed=18.1x    frame= 9899 fps=435 q=-0.0 size=N/A time=00:06:52.87 bitrate=N/A speed=18.2x    frame=10152 fps=437 q=-0.0 size=N/A time=00:07:03.42 bitrate=N/A speed=18.2x    frame=10416 fps=438 q=-0.0 size=N/A time=00:07:14.43 bitrate=N/A speed=18.3x    frame=10691 fps=440 q=-0.0 size=N/A time=00:07:25.90 bitrate=N/A speed=18.4x    frame=10944 fps=441 q=-0.0 size=N/A time=00:07:36.45 bitrate=N/A speed=18.4x    frame=11182 fps=442 q=-0.0 size=N/A time=00:07:46.38 bitrate=N/A speed=18.4x    frame=11424 fps=442 q=-0.0 size=N/A time=00:07:56.47 bitrate=N/A speed=18.5x    frame=11682 fps=444 q=-0.0 size=N/A time=00:08:07.27 bitrate=N/A speed=18.5x    frame=11945 fps=445 q=-0.0 size=N/A time=00:08:18.20 bitrate=N/A speed=18.6x    frame=12195 fps=446 q=-0.0 size=N/A time=00:08:28.63 bitrate=N/A speed=18.6x    frame=12457 fps=447 q=-0.0 size=N/A time=00:08:39.56 bitrate=N/A speed=18.6x    frame=12722 fps=448 q=-0.0 size=N/A time=00:08:50.61 bitrate=N/A speed=18.7x    frame=12982 fps=449 q=-0.0 size=N/A time=00:09:01.45 bitrate=N/A speed=18.7x    frame=13235 fps=450 q=-0.0 size=N/A time=00:09:12.00 bitrate=N/A speed=18.8x    frame=13494 fps=451 q=-0.0 size=N/A time=00:09:22.81 bitrate=N/A speed=18.8x    frame=13757 fps=452 q=-0.0 size=N/A time=00:09:33.78 bitrate=N/A speed=18.8x    frame=13971 fps=451 q=-0.0 size=N/A time=00:09:42.70 bitrate=N/A speed=18.8x    frame=14206 fps=451 q=-0.0 size=N/A time=00:09:52.50 bitrate=N/A speed=18.8x    frame=14450 fps=451 q=-0.0 size=N/A time=00:10:02.68 bitrate=N/A speed=18.8x    frame=14683 fps=451 q=-0.0 size=N/A time=00:10:12.40 bitrate=N/A speed=18.8x    frame=14935 fps=452 q=-0.0 size=N/A time=00:10:22.91 bitrate=N/A speed=18.8x    frame=15187 fps=453 q=-0.0 size=N/A time=00:10:33.42 bitrate=N/A speed=18.9x    frame=15445 fps=453 q=-0.0 size=N/A time=00:10:44.18 bitrate=N/A speed=18.9x    frame=15686 fps=454 q=-0.0 size=N/A time=00:10:54.23 bitrate=N/A speed=18.9x    frame=15946 fps=454 q=-0.0 size=N/A time=00:11:05.08 bitrate=N/A speed=18.9x    frame=16187 fps=454 q=-0.0 size=N/A time=00:11:15.13 bitrate=N/A speed=  19x    frame=16416 fps=454 q=-0.0 size=N/A time=00:11:24.68 bitrate=N/A speed=18.9x    frame=16673 fps=455 q=-0.0 size=N/A time=00:11:35.40 bitrate=N/A speed=  19x    frame=16946 fps=456 q=-0.0 size=N/A time=00:11:46.78 bitrate=N/A speed=  19x    frame=17200 fps=456 q=-0.0 size=N/A time=00:11:57.38 bitrate=N/A speed=  19x    frame=17465 fps=457 q=-0.0 size=N/A time=00:12:08.43 bitrate=N/A speed=19.1x    frame=17713 fps=458 q=-0.0 size=N/A time=00:12:18.77 bitrate=N/A speed=19.1x    frame=17964 fps=458 q=-0.0 size=N/A time=00:12:29.24 bitrate=N/A speed=19.1x    frame=18224 fps=458 q=-0.0 size=N/A time=00:12:40.09 bitrate=N/A speed=19.1x    frame=18476 fps=459 q=-0.0 size=N/A time=00:12:50.60 bitrate=N/A speed=19.1x    frame=18737 fps=459 q=-0.0 size=N/A time=00:13:01.48 bitrate=N/A speed=19.2x    frame=18931 fps=458 q=-0.0 size=N/A time=00:13:09.58 bitrate=N/A speed=19.1x    frame=19189 fps=459 q=-0.0 size=N/A time=00:13:20.34 bitrate=N/A speed=19.1x    frame=19464 fps=460 q=-0.0 size=N/A time=00:13:31.81 bitrate=N/A speed=19.2x    frame=19686 fps=460 q=-0.0 size=N/A time=00:13:41.07 bitrate=N/A speed=19.2x    frame=19902 fps=459 q=-0.0 size=N/A time=00:13:50.07 bitrate=N/A speed=19.1x    frame=20158 fps=460 q=-0.0 size=N/A time=00:14:00.75 bitrate=N/A speed=19.2x    frame=20415 fps=460 q=-0.0 size=N/A time=00:14:11.47 bitrate=N/A speed=19.2x    frame=20645 fps=460 q=-0.0 size=N/A time=00:14:21.06 bitrate=N/A speed=19.2x    frame=20884 fps=460 q=-0.0 size=N/A time=00:14:31.07 bitrate=N/A speed=19.2x    frame=21118 fps=460 q=-0.0 size=N/A time=00:14:40.79 bitrate=N/A speed=19.2x    frame=21334 fps=459 q=-0.0 size=N/A time=00:14:49.80 bitrate=N/A speed=19.2x    frame=21555 fps=459 q=-0.0 size=N/A time=00:14:59.02 bitrate=N/A speed=19.1x    frame=21780 fps=459 q=-0.0 size=N/A time=00:15:08.40 bitrate=N/A speed=19.1x    frame=22012 fps=459 q=-0.0 size=N/A time=00:15:18.08 bitrate=N/A speed=19.1x    frame=22243 fps=459 q=-0.0 size=N/A time=00:15:27.71 bitrate=N/A speed=19.1x    frame=22469 fps=458 q=-0.0 size=N/A time=00:15:37.14 bitrate=N/A speed=19.1x    frame=22692 fps=458 q=-0.0 size=N/A time=00:15:46.44 bitrate=N/A speed=19.1x    frame=22926 fps=458 q=-0.0 size=N/A time=00:15:56.20 bitrate=N/A speed=19.1x    frame=23182 fps=458 q=-0.0 size=N/A time=00:16:06.88 bitrate=N/A speed=19.1x    frame=23431 fps=459 q=-0.0 size=N/A time=00:16:17.26 bitrate=N/A speed=19.1x    frame=23685 fps=459 q=-0.0 size=N/A time=00:16:27.86 bitrate=N/A speed=19.1x    frame=23928 fps=459 q=-0.0 size=N/A time=00:16:37.99 bitrate=N/A speed=19.1x    frame=24174 fps=459 q=-0.0 size=N/A time=00:16:48.25 bitrate=N/A speed=19.2x    frame=24442 fps=460 q=-0.0 size=N/A time=00:16:59.43 bitrate=N/A speed=19.2x    frame=24692 fps=460 q=-0.0 size=N/A time=00:17:09.86 bitrate=N/A speed=19.2x    frame=24935 fps=460 q=-0.0 size=N/A time=00:17:19.99 bitrate=N/A speed=19.2x    frame=25181 fps=460 q=-0.0 size=N/A time=00:17:30.25 bitrate=N/A speed=19.2x    frame=25404 fps=460 q=-0.0 size=N/A time=00:17:39.55 bitrate=N/A speed=19.2x    frame=25620 fps=460 q=-0.0 size=N/A time=00:17:48.56 bitrate=N/A speed=19.2x    frame=25856 fps=460 q=-0.0 size=N/A time=00:17:58.41 bitrate=N/A speed=19.2x    frame=26092 fps=460 q=-0.0 size=N/A time=00:18:08.25 bitrate=N/A speed=19.2x    frame=26274 fps=459 q=-0.0 size=N/A time=00:18:15.84 bitrate=N/A speed=19.1x    frame=26533 fps=459 q=-0.0 size=N/A time=00:18:26.64 bitrate=N/A speed=19.1x    frame=26767 fps=459 q=-0.0 size=N/A time=00:18:36.40 bitrate=N/A speed=19.1x    frame=26968 fps=458 q=-0.0 size=N/A time=00:18:44.79 bitrate=N/A speed=19.1x    frame=27223 fps=459 q=-0.0 size=N/A time=00:18:55.42 bitrate=N/A speed=19.1x    frame=27471 fps=459 q=-0.0 size=N/A time=00:19:05.76 bitrate=N/A speed=19.1x    frame=27695 fps=459 q=-0.0 size=N/A time=00:19:15.11 bitrate=N/A speed=19.1x    frame=27946 fps=459 q=-0.0 size=N/A time=00:19:25.58 bitrate=N/A speed=19.1x    frame=28155 fps=458 q=-0.0 size=N/A time=00:19:34.29 bitrate=N/A speed=19.1x    frame=28332 fps=457 q=-0.0 size=N/A time=00:19:41.68 bitrate=N/A speed=19.1x    frame=28582 fps=458 q=-0.0 size=N/A time=00:19:52.10 bitrate=N/A speed=19.1x    frame=28820 fps=458 q=-0.0 size=N/A time=00:20:02.03 bitrate=N/A speed=19.1x    frame=29021 fps=457 q=-0.0 size=N/A time=00:20:10.41 bitrate=N/A speed=19.1x    frame=29271 fps=457 q=-0.0 size=N/A time=00:20:20.84 bitrate=N/A speed=19.1x    frame=29498 fps=457 q=-0.0 size=N/A time=00:20:30.31 bitrate=N/A speed=19.1x    frame=29710 fps=457 q=-0.0 size=N/A time=00:20:39.15 bitrate=N/A speed=19.1x    frame=29946 fps=457 q=-0.0 size=N/A time=00:20:48.99 bitrate=N/A speed=19.1x    frame=30182 fps=457 q=-0.0 size=N/A time=00:20:58.84 bitrate=N/A speed=19.1x    frame=30426 fps=457 q=-0.0 size=N/A time=00:21:09.01 bitrate=N/A speed=19.1x    frame=30668 fps=457 q=-0.0 size=N/A time=00:21:19.11 bitrate=N/A speed=19.1x    frame=30902 fps=457 q=-0.0 size=N/A time=00:21:28.87 bitrate=N/A speed=19.1x    frame=31162 fps=457 q=-0.0 size=N/A time=00:21:39.71 bitrate=N/A speed=19.1x    frame=31417 fps=458 q=-0.0 size=N/A time=00:21:50.35 bitrate=N/A speed=19.1x    frame=31651 fps=458 q=-0.0 size=N/A time=00:22:00.11 bitrate=N/A speed=19.1x    frame=31894 fps=458 q=-0.0 size=N/A time=00:22:10.24 bitrate=N/A speed=19.1x    frame=32162 fps=458 q=-0.0 size=N/A time=00:22:21.42 bitrate=N/A speed=19.1x    frame=32428 fps=459 q=-0.0 size=N/A time=00:22:32.51 bitrate=N/A speed=19.1x    frame=32673 fps=459 q=-0.0 size=N/A time=00:22:42.73 bitrate=N/A speed=19.1x    frame=32924 fps=459 q=-0.0 size=N/A time=00:22:53.20 bitrate=N/A speed=19.1x    frame=33178 fps=459 q=-0.0 size=N/A time=00:23:03.79 bitrate=N/A speed=19.1x    [Parsed_ssim_10 @ 000001a3ae160400] SSIM Y:0.993859 (22.117938) U:0.995237 (23.221499) V:0.995709 (23.673972) All:0.994397 (22.516021)
[out#0/null @ 000001a3a1a106c0] video:14363KiB audio:261432KiB subtitle:0KiB other streams:0KiB global headers:0KiB muxing overhead: unknown
frame=33427 fps=460 q=-0.0 Lsize=N/A time=00:23:14.18 bitrate=N/A speed=19.2x    
